# xmcd
#
# Track frame offsets: 
#        300
#        35458
#        65334
#        83989
#        108250
#        124799
#        156609
#        197373
#        234373
#        273018
#
# Disc length: 4305 seconds
#
# Revision: 1
# Processed by: cddbd v1.5.2PL0 Copyright (c) Steve Scherf et al.
# Submitted via: ExactAudioCopy v1.0b1
#
DISCID=7e10cd0a
DTITLE=Jimmy Dawkins, Beau and Bragason - Blues From Iceland
DYEAR=1991
DGENRE=Chicago Blues
TTITLE0=Welfare Line
TTITLE1=That's Alright
TTITLE2=You Don't Love Me
TTITLE3=Feel So Bad
TTITLE4=Too Much Alcohol
TTITLE5=Tin Pan Alley
TTITLE6=Help Me
TTITLE7=One Room Country Shack
TTITLE8=Nightlife
TTITLE9=Sometimes I Have A Heartache
EXTD=
EXTT0=
EXTT1=
EXTT2=
EXTT3=
EXTT4=
EXTT5=
EXTT6=
EXTT7=
EXTT8=
EXTT9=
PLAYORDER=
